<?xml version="1.0" encoding="iso-8859-1"?>
<!-- Generator: Adobe Illustrator 19.0.0, SVG Export Plug-In . SVG Version: 6.00 Build 0)  -->
<svg version="1.1" id="Layer_1" xmlns="http://www.w3.org/2000/svg" xmlns:xlink="http://www.w3.org/1999/xlink" x="0px" y="0px"
	 viewBox="0 0 511.999 511.999" style="enable-background:new 0 0 511.999 511.999;" xml:space="preserve">
<g>
	<g>
		<path style='fill: #fff' d="M499.132,134.338l-72.02-17.472c3.619-6.267,4.914-13.534,3.639-20.746c-1.433-8.114-5.942-15.181-12.693-19.903
			l-26.307-18.403c-5.21-3.645-11.319-5.57-17.667-5.57c-9.556,0-18.553,4.442-24.375,11.945c-3.557-1.356-7.339-2.072-11.213-2.072
			c-10.308,0-19.988,5.039-25.891,13.481l-43.559,62.268c-8.446,12.075-7.246,28.059,1.969,38.739l-15.017,21.467l-15.011-21.458
			c9.107-10.514,10.542-26.483,1.962-38.748l-43.558-62.268c-5.905-8.441-15.584-13.481-25.891-13.481
			c-3.874,0-7.656,0.716-11.212,2.072c-5.821-7.503-14.819-11.945-24.375-11.945c-6.348,0-12.457,1.926-17.666,5.571L93.941,76.216
			c-6.751,4.722-11.258,11.79-12.693,19.903c-1.275,7.211,0.02,14.479,3.639,20.745l-72.02,17.472
			C5.331,136.166,0.018,142.907,0,150.663c-0.005,2.03,0.216,50.171,28.615,90.767c28.398,40.597,73.545,57.309,75.454,58
			c7.295,2.645,15.447-0.039,19.748-6.491l41.033-61.552l33.922,48.491l-79.012,112.95c-9.771,13.967-6.377,33.18,7.593,42.952
			l26.307,18.403c14.07,9.842,33.279,6.233,42.952-7.594l59.389-84.9l59.389,84.899c9.693,13.858,28.912,17.415,42.952,7.594
			l26.306-18.402c13.968-9.771,17.367-28.982,7.594-42.952l-79.012-112.95l33.922-48.491l41.033,61.552
			c4.303,6.453,12.456,9.134,19.749,6.491c1.908-0.691,47.056-17.404,75.454-58c28.398-40.597,28.618-88.738,28.614-90.767
			C511.983,142.907,506.67,136.166,499.132,134.338z M143.382,204.961c-1.719,1.202-3.197,2.714-4.359,4.458l-35.259,52.89
			c-12.782-6.694-33.243-19.722-47.555-40.181c-14.316-20.465-19.539-44.16-21.443-58.45l61.774-14.987
			c2.036-0.494,3.964-1.364,5.682-2.566l70.776-49.51l41.158,58.837L143.382,204.961z M170.641,424.965l-21.662-15.154
			l70.342-100.556l16.131,23.059L170.641,424.965z M363.022,409.811l-21.662,15.154c-7.32-10.465-141.946-202.917-149.079-213.113
			l21.662-15.154C215.978,199.607,342.73,380.802,363.022,409.811z M292.681,250.506l-16.131-23.06l21.508-30.746
			c14.981,10.48,8.856,6.194,21.662,15.153L292.681,250.506z M455.792,222.127c-14.312,20.459-34.773,33.489-47.555,40.181
			l-35.259-52.89c-1.163-1.744-2.641-3.255-4.359-4.458l-70.776-49.51l41.159-58.837c0,0,52.043,36.405,52.044,36.406l18.731,13.102
			c1.717,1.201,3.645,2.072,5.682,2.566l61.773,14.987C475.328,177.981,470.105,201.668,455.792,222.127z"/>
	</g>
</g>
<g>
</g>
<g>
</g>
<g>
</g>
<g>
</g>
<g>
</g>
<g>
</g>
<g>
</g>
<g>
</g>
<g>
</g>
<g>
</g>
<g>
</g>
<g>
</g>
<g>
</g>
<g>
</g>
<g>
</g>
</svg>
